<?xml version="1.0" encoding="UTF-8"?>
<svg id="Layer_2" data-name="Layer 2" xmlns="http://www.w3.org/2000/svg" xmlns:xlink="http://www.w3.org/1999/xlink" viewBox="0 0 899.4 562.61">
  <defs>
    <style>
      .cls-1 {
        stroke-linecap: square;
      }

      .cls-1, .cls-2, .cls-3, .cls-4, .cls-5, .cls-6, .cls-7, .cls-8, .cls-9 {
        stroke-miterlimit: 10;
      }

      .cls-1, .cls-2, .cls-3, .cls-4, .cls-6, .cls-7, .cls-10, .cls-8, .cls-9, .cls-11 {
        stroke: #fff;
      }

      .cls-1, .cls-4, .cls-7, .cls-10, .cls-12, .cls-9 {
        fill: #353535;
      }

      .cls-1, .cls-7, .cls-9, .cls-11 {
        stroke-width: 3px;
      }

      .cls-2, .cls-5, .cls-11 {
        fill: none;
      }

      .cls-3, .cls-4, .cls-6, .cls-10, .cls-8 {
        stroke-width: 2px;
      }

      .cls-3, .cls-13 {
        fill: #dccea7;
      }

      .cls-5 {
        stroke: #304a61;
        stroke-width: 15px;
      }

      .cls-14, .cls-15 {
        fill: #304a61;
      }

      .cls-6, .cls-16 {
        fill: #fff;
      }

      .cls-15 {
        font-family: AlfaSlabOne-Regular, 'Alfa Slab One';
        font-size: 63.29px;
        letter-spacing: .03em;
      }

      .cls-7 {
        stroke-linecap: round;
      }

      .cls-10 {
        stroke-linejoin: bevel;
      }

      .cls-17 {
        fill: url(#linear-gradient);
        filter: url(#drop-shadow-1);
      }

      .cls-8 {
        fill: #3c6e71;
      }

      .cls-18 {
        fill: #b9a78c;
      }

      .cls-11 {
        stroke-linejoin: round;
      }
    </style>
    <linearGradient id="linear-gradient" x1="115.31" y1="196.68" x2="784.09" y2="196.68" gradientUnits="userSpaceOnUse">
      <stop offset="0" stop-color="#3c6e71"/>
      <stop offset="1" stop-color="#0a2130"/>
    </linearGradient>
    <filter id="drop-shadow-1" x="94.88" y="20.77" width="730" height="336" filterUnits="userSpaceOnUse">
      <feOffset dx="10" dy="-8"/>
      <feGaussianBlur result="blur" stdDeviation="10"/>
      <feFlood flood-color="#000" flood-opacity=".3"/>
      <feComposite in2="blur" operator="in"/>
      <feComposite in="SourceGraphic"/>
    </filter>
  </defs>
  <g id="Logo_8V4" data-name="Logo 8V4">
    <g>
      <g>
        <polygon id="Mountain_Big" data-name="Mountain Big" class="cls-18" points="43.56 334.3 282.58 106.51 318.61 138.88 466.34 0 567.77 101.26 619.71 65.23 855.84 334.3 43.56 334.3"/>
        <polygon id="Mountain_Small" data-name="Mountain Small" class="cls-17" points="115.31 334.3 312.1 146.75 341.77 173.4 463.4 59.06 573.55 182.44 605.87 137.2 647.5 237.22 668.93 210.51 784.09 334.3 115.31 334.3"/>
      </g>
      <g>
        <g>
          <g>
            <path class="cls-14" d="M197.78,433.37c0,21.57-12.57,34.4-33.87,34.4s-33.87-12.84-33.87-34.4,12.57-34.4,33.87-34.4,33.87,12.84,33.87,34.4ZM148.16,433.37c0,14.03,5.56,20.91,15.75,20.91s15.74-6.88,15.74-20.91-5.56-20.91-15.74-20.91-15.75,6.88-15.75,20.91Z"/>
            <path class="cls-14" d="M269.62,400.29v66.16h-16.14l-.66-11.38c-4.37,8.73-12.57,12.7-23.16,12.7-13.36,0-23.29-6.75-23.29-23.69v-43.8h18.13v39.17c0,10.72,4.37,14.03,11.51,14.03,8.6,0,15.48-5.43,15.48-17.73v-35.46h18.13Z"/>
            <path class="cls-14" d="M345.3,423.05v43.4h-18.13v-38.11c0-11.38-4.9-15.08-11.78-15.08-7.67,0-15.22,5.03-15.22,18.26v34.93h-18.13v-66.16h16.28l.66,11.78c4.37-8.87,12.57-13.1,22.49-13.1,13.76,0,23.82,8.07,23.82,24.08Z"/>
            <path class="cls-14" d="M402.19,462.35c-4.23,3.44-11.11,5.42-18.13,5.42-13.1,0-22.1-5.42-22.1-19.98v-34.01h-12.04v-13.5h12.04v-15.22l18.13-5.03v20.24h21.44v13.5h-21.44v31.1c0,6.35,3.44,9.13,9.13,9.13,4.37,0,7.41-1.32,10.19-3.7l2.78,12.04Z"/>
            <path class="cls-14" d="M472.57,454.94l-1.32,10.98c-2.38,1.19-5.29,1.85-8.6,1.85-7.94,0-13.36-2.78-15.22-9.92-3.97,6.48-12.3,9.92-23.42,9.92-12.57,0-20.51-5.82-20.51-16.94,0-10.32,8.07-17.6,25.8-20.91l15.88-3.04v-3.17c0-7.01-4.1-11.51-11.25-11.51-7.67,0-13.23,2.91-15.22,11.25l-14.42-6.09c2.78-11.25,12.7-18.39,28.85-18.39,18.39,0,30.04,7.94,30.04,24.35v27.13c0,3.44,1.46,5.03,4.9,5.03,1.59,0,3.17-.13,4.5-.53ZM445.18,444.88v-6.88l-14.16,3.18c-5.82,1.32-8.87,3.44-8.87,7.81s2.78,6.48,7.54,6.48c6.88,0,15.48-3.57,15.48-10.59Z"/>
            <path class="cls-14" d="M474.82,381.11c0-6.48,3.7-9.79,11.25-9.79s11.25,3.31,11.25,9.79-3.7,9.66-11.25,9.66-11.25-3.18-11.25-9.66ZM495.06,466.45h-18.13v-66.16h18.13v66.16Z"/>
            <path class="cls-14" d="M570.88,423.05v43.4h-18.13v-38.11c0-11.38-4.9-15.08-11.78-15.08-7.67,0-15.22,5.03-15.22,18.26v34.93h-18.13v-66.16h16.27l.66,11.78c4.37-8.87,12.57-13.1,22.49-13.1,13.76,0,23.82,8.07,23.82,24.08Z"/>
            <path class="cls-14" d="M658.2,466.45h-21.3l-31.89-87.33h19.32l18.39,55.58,5.03,17.2,4.9-17.07,18.52-55.71h18.79l-31.76,87.33Z"/>
            <path class="cls-14" d="M692.59,381.11c0-6.48,3.71-9.79,11.25-9.79s11.25,3.31,11.25,9.79-3.7,9.66-11.25,9.66-11.25-3.18-11.25-9.66ZM712.84,466.45h-18.13v-66.16h18.13v66.16Z"/>
            <path class="cls-14" d="M786.67,440.25h-46.84c1.85,9.53,7.67,14.03,16.54,14.03,7.67,0,12.7-2.91,14.56-8.2l14.82,5.42c-4.23,10.59-14.42,16.28-29.38,16.28-21.97,0-34.4-12.7-34.4-34.4s12.04-34.4,33.34-34.4,31.89,12.44,31.89,34.14c0,1.85-.27,5.42-.53,7.15ZM739.7,427.55h30.83c-1.46-9.92-7.01-15.22-15.35-15.22s-14.03,5.16-15.48,15.22Z"/>
            <path class="cls-14" d="M899.4,400.29l-21.04,66.16h-21.04l-14.42-46.71-13.89,46.71h-20.91l-21.04-66.16h19.19l13.23,51.61,14.82-51.61h17.86l14.82,51.61,13.23-51.61h19.19Z"/>
          </g>
          <line class="cls-5" x1="72.45" y1="392.73" x2="72.45" y2="483.21"/>
          <line class="cls-5" x1="112.36" y1="363.77" x2="112.36" y2="483.21"/>
          <line class="cls-5" x1="32.54" y1="412.09" x2="32.54" y2="483.21"/>
          <path class="cls-14" d="M129.83,351.96c0-.4.07-.74.19-1.04L0,415.27l6.75,15.62,123.08-60.91v-18.02Z"/>
        </g>
        <text class="cls-15" transform="translate(137.46 541.92)"><tspan x="0" y="0">POLE BUILDINGS</tspan></text>
      </g>
      <g id="Pole_Building" data-name="Pole Building">
        <g id="Pole_Building-2" data-name="Pole Building">
          <g>
            <polyline class="cls-13" points="267.69 285.17 267.97 275.44 311.78 263.56 312.17 253.98 412.66 235.71 514.96 162.94 519.47 159.42 522.85 162.64 606.68 242.72 606.68 247.28 654.42 264.54 651.83 272.97 599.97 271.97 599.97 335.3 312.83 280.22"/>
            <polygon class="cls-12" points="311.71 340.34 312.06 282.38 358.32 276.47 360.28 340.68 311.71 340.34"/>
            <polygon class="cls-12" points="358.88 341.14 358.87 276.6 416.04 259.14 416.7 341.31 358.88 341.14"/>
            <path class="cls-8" d="M311.71,282v57.83-57.83Z"/>
            <polygon class="cls-12" points="599.95 254 599.5 273.65 652.16 273.25 599.95 254"/>
            <polygon class="cls-4" points="417.27 344.61 417.24 245.24 520.01 163.31 601.67 246.28 600.64 345.31 417.27 344.61"/>
            <polyline class="cls-7" points="272.26 341.52 327.42 343.2 641.03 343.2"/>
            <path class="cls-9" d="M310.15,256.7l96.89-72.63h0s112.18-23.42,112.18-23.42c.22.06-102.79,78.6-102.76,78.66h0s-106.34,17.47-106.3,17.39Z"/>
            <polygon class="cls-4" points="264.7 275.75 310.09 262.2 416.41 244.85 357.89 262.82 264.7 275.75"/>
            <rect class="cls-6" x="411.36" y="303.91" width="56.87" height="20.79" transform="translate(122.85 752.2) rotate(-89.66)"/>
            <g>
              <rect class="cls-16" x="478.47" y="240.38" width="87.23" height="119.85" transform="translate(218.72 820.62) rotate(-89.66)"/>
              <path class="cls-16" d="M463.41,257.32l117.85.75-.5,85.23-117.85-.75.5-85.23M461.42,255.31l-.52,89.23,121.85.77.52-89.23-121.85-.77h0Z"/>
            </g>
            <rect class="cls-6" x="502.11" y="207.38" width="25.8" height="29.39" transform="translate(289.81 735.72) rotate(-89.65)"/>
            <polygon class="cls-2" points="601.41 252.68 601.69 249.32 601.88 245.29 654.7 264.89 651.72 272.91 601.61 254.32 601.41 252.68"/>
            <polyline class="cls-11" points="266.85 275.76 266.43 285.16 310.7 280.3 358.1 275.1 416.34 257.82"/>
            <path class="cls-9" d="M357.86,340.52s.49-48.15.36-64.2"/>
            <line class="cls-1" x1="272.33" y1="339.85" x2="272.95" y2="284.54"/>
            <polyline class="cls-3" points="519.34 159.42 606.68 242.67 606.71 246.83"/>
            <line class="cls-9" x1="642.71" y1="273.65" x2="642.47" y2="340.68"/>
            <line class="cls-10" x1="311.71" y1="253.54" x2="311.77" y2="261.92"/>
          </g>
        </g>
      </g>
    </g>
  </g>
</svg>